<svg width="22" height="22" viewBox="0 0 22 22" fill="none" xmlns="http://www.w3.org/2000/svg">
<path d="M7.16977 14.366L15.83 9.36597C16.3083 9.08982 16.4722 8.47823 16.196 7.99994C15.9199 7.52165 15.3083 7.35777 14.83 7.63392L6.16977 12.6339C5.69147 12.9101 5.5276 13.5216 5.80374 13.9999C6.07988 14.4782 6.69147 14.6421 7.16977 14.366Z" fill="#CBD3D8"/>
<path d="M15.8302 12.634L7.16998 7.63403C6.69169 7.35789 6.0801 7.52177 5.80396 8.00006C5.52781 8.47835 5.69169 9.08994 6.16998 9.36608L14.8302 14.3661C15.3085 14.6422 15.9201 14.4784 16.1963 14.0001C16.4724 13.5218 16.3085 12.9102 15.8302 12.634Z" fill="#CBD3D8"/>
<path d="M10 6L10 16C10 16.5523 10.4477 17 11 17C11.5523 17 12 16.5523 12 16L12 6C12 5.44771 11.5523 5 11 5C10.4477 5 10 5.44771 10 6Z" fill="#CBD3D8"/>
</svg> 
