<svg width="22" height="22" viewBox="0 0 22 22" fill="none" xmlns="http://www.w3.org/2000/svg">
  <path d="M7.6547 7.81162L1.02131 7.81162C1.01831 7.81162 1.01772 7.81123 1.01766 7.81119L1.01766 7.81119C1.01694 7.81088 1.01452 7.80965 1.01139 7.80648C1.00825 7.80329 1.00544 7.79918 1.00348 7.79445C1.00176 7.79034 1 7.78421 1 7.77447L1 1.03715C1 1.02741 1.00176 1.02128 1.00348 1.01716C1.00544 1.01244 1.00825 1.00832 1.01139 1.00514C1.01452 1.00196 1.01694 1.00073 1.01766 1.00043C1.01767 1.00042 1.01817 1 1.02131 1L7.6547 1C7.65783 1 7.65833 1.00042 7.65835 1.00043C7.65907 1.00073 7.66149 1.00196 7.66462 1.00514C7.66775 1.00832 7.67056 1.01244 7.67253 1.01716C7.67424 1.02128 7.676 1.02741 7.676 1.03715L7.676 7.77447C7.676 7.78421 7.67424 7.79034 7.67253 7.79445C7.67056 7.79918 7.66775 7.80329 7.66462 7.80648C7.66149 7.80965 7.65907 7.81088 7.65835 7.81119C7.65833 7.8112 7.65783 7.81162 7.6547 7.81162Z" stroke="white" stroke-width="2"/>
  <path d="M20.9787 7.81162L14.3453 7.81162C14.3423 7.81162 14.3417 7.81123 14.3416 7.81119L14.3416 7.81119C14.3409 7.81088 14.3385 7.80965 14.3354 7.80648C14.3322 7.80329 14.3294 7.79918 14.3275 7.79445C14.3257 7.79034 14.324 7.78421 14.324 7.77447L14.324 1.03715C14.324 1.02741 14.3257 1.02128 14.3275 1.01716C14.3294 1.01244 14.3322 1.00832 14.3354 1.00514C14.3385 1.00196 14.3409 1.00073 14.3416 1.00043C14.3416 1.00042 14.3421 1 14.3453 1L20.9787 1C20.9818 1 20.9823 1.00042 20.9823 1.00043C20.983 1.00073 20.9855 1.00196 20.9886 1.00514C20.9917 1.00832 20.9945 1.01244 20.9965 1.01716C20.9982 1.02128 21 1.02741 21 1.03715V7.77447C21 7.78421 20.9982 7.79034 20.9965 7.79445C20.9945 7.79918 20.9917 7.80329 20.9886 7.80648C20.9855 7.80965 20.983 7.81088 20.9823 7.81119C20.9823 7.8112 20.9818 7.81162 20.9787 7.81162Z" stroke="white" stroke-width="2"/>
  <path d="M7.6547 21H1.02131C1.01817 21 1.01767 20.9996 1.01766 20.9995C1.01694 20.9992 1.01452 20.998 1.01139 20.9948C1.00825 20.9916 1.00544 20.9875 1.00348 20.9828C1.00176 20.9787 1 20.9726 1 20.9628L1 14.2255C1 14.2158 1.00176 14.2096 1.00348 14.2055C1.00544 14.2008 1.00825 14.1967 1.01139 14.1935C1.01452 14.1903 1.01694 14.1891 1.01766 14.1888C1.01767 14.1888 1.01817 14.1884 1.02131 14.1884L7.6547 14.1884C7.65783 14.1884 7.65833 14.1888 7.65835 14.1888C7.65907 14.1891 7.66149 14.1903 7.66462 14.1935C7.66775 14.1967 7.67056 14.2008 7.67253 14.2055C7.67424 14.2096 7.676 14.2158 7.676 14.2255L7.676 20.9628C7.676 20.9726 7.67424 20.9787 7.67253 20.9828C7.67056 20.9875 7.66775 20.9916 7.66462 20.9948C7.66149 20.998 7.65907 20.9992 7.65835 20.9995C7.65833 20.9996 7.65783 21 7.6547 21Z" stroke="white" stroke-width="2"/>
  <path d="M18.8849 17.3795H18.1822C17.8952 17.3795 17.6624 17.143 17.6624 16.8516V16.138C17.6624 15.8466 17.8952 15.6101 18.1822 15.6101H18.8849C19.1718 15.6101 19.4047 15.8466 19.4047 16.138V16.8516C19.4047 17.143 19.1718 17.3795 18.8849 17.3795Z" fill="white"/>
  <path d="M21.0777 19.5783H20.374C20.0871 19.5783 19.8552 19.3418 19.8552 19.0504V18.3368C19.8552 18.0454 20.0871 17.8089 20.374 17.8089H21.0777C21.3637 17.8089 21.5966 18.0454 21.5966 18.3368V19.0504C21.5966 19.3418 21.3637 19.5783 21.0777 19.5783Z" fill="white"/>
  <path d="M18.8849 21.776H18.1822C17.8952 21.776 17.6624 21.5395 17.6624 21.2481V20.5345C17.6624 20.2431 17.8952 20.0066 18.1822 20.0066H18.8849C19.1718 20.0066 19.4047 20.2431 19.4047 20.5345V21.2481C19.4047 21.5395 19.1718 21.776 18.8849 21.776Z" fill="white"/>
  <path d="M4.68979 5.29049H3.98713C3.70014 5.29049 3.46729 5.05402 3.46729 4.76259V4.04903C3.46729 3.75759 3.70014 3.52112 3.98713 3.52112H4.68979C4.97678 3.52112 5.20963 3.75759 5.20963 4.04903V4.76259C5.20963 5.05402 4.97678 5.29049 4.68979 5.29049Z" fill="white"/>
  <path d="M4.68979 18.6925H3.98713C3.70014 18.6925 3.46729 18.4561 3.46729 18.1646V17.4511C3.46729 17.1596 3.70014 16.9232 3.98713 16.9232H4.68979C4.97678 16.9232 5.20963 17.1596 5.20963 17.4511V18.1646C5.20963 18.4561 4.97678 18.6925 4.68979 18.6925Z" fill="white"/>
  <path d="M16.636 17.8079H16.158H15.9333H13.7405C13.4536 17.8079 13.2207 18.0443 13.2207 18.3358V19.0493C13.2207 19.3408 13.4536 19.5772 13.7405 19.5772H15.9333H16.158H16.636C16.9229 19.5772 17.1558 19.3408 17.1558 19.0493V18.3358C17.1558 18.0443 16.9229 17.8079 16.636 17.8079Z" fill="white"/>
  <path d="M21.0776 11.0995H20.4587H20.3749H18.1822C17.8952 11.0995 17.6624 11.336 17.6624 11.6275V12.341C17.6624 12.6325 17.8952 12.8689 18.1822 12.8689H19.8551V14.6539C19.8551 14.9453 20.088 15.1818 20.3749 15.1818H21.0776C21.3646 15.1818 21.5974 14.9453 21.5974 14.6539V12.341V12.1274V11.6275C21.5974 11.336 21.3646 11.0995 21.0776 11.0995Z" fill="white"/>
  <path d="M16.636 13.4124H14.9631V11.6285C14.9631 11.3371 14.7303 11.1006 14.4433 11.1006H14.0501H13.7406H11.5765C11.2895 11.1006 11.0566 11.3371 11.0566 11.6285V12.3421C11.0566 12.6335 11.2895 12.87 11.5765 12.87H13.2208V13.9403V14.155V14.6539V16.8526C13.2208 17.1441 13.4536 17.3805 13.7406 17.3805H14.4433C14.7303 17.3805 14.9631 17.1441 14.9631 16.8526V15.1818H16.636C16.923 15.1818 17.1559 14.9453 17.1559 14.6539V13.9403C17.1559 13.6489 16.923 13.4124 16.636 13.4124Z" fill="white"/>
  <path d="M12.2791 21.776H11.5765C11.2895 21.776 11.0566 21.5395 11.0566 21.2481V20.5345C11.0566 20.2431 11.2895 20.0066 11.5765 20.0066H12.2791C12.5661 20.0066 12.799 20.2431 12.799 20.5345V21.2481C12.799 21.5395 12.5661 21.776 12.2791 21.776Z" fill="white"/>
  <path d="M18.0138 5.29049H17.3101C17.0231 5.29049 16.7913 5.05402 16.7913 4.76259V4.04903C16.7913 3.75759 17.0231 3.52112 17.3101 3.52112H18.0138C18.2997 3.52112 18.5326 3.75759 18.5326 4.04903V4.76259C18.5326 5.05402 18.2997 5.29049 18.0138 5.29049Z" fill="white"/>
</svg>
