<svg width="22" height="22" viewBox="0 0 22 22" fill="none" xmlns="http://www.w3.org/2000/svg">
  <mask id="mask0_1081_783" style="mask-type:luminance" maskUnits="userSpaceOnUse" x="0" y="0" width="22" height="22">
    <path d="M22 0L0 0L0 22L22 22L22 0Z" fill="white"/>
  </mask>
  <g mask="url(#mask0_1081_783)">
    <path d="M9.0505 16.2929L13.2931 12.0502C13.6837 11.6597 13.6837 11.0266 13.2931 10.636C12.9026 10.2455 12.2694 10.2455 11.8789 10.636L7.63628 14.8787C7.24576 15.2692 7.24576 15.9024 7.63628 16.2929C8.02681 16.6834 8.65997 16.6834 9.0505 16.2929Z" fill="#899CA8"/>
    <path d="M13.292 10.2929L9.04939 6.05025C8.65887 5.65972 8.0257 5.65972 7.63518 6.05025C7.24465 6.44077 7.24465 7.07394 7.63518 7.46446L11.8778 11.7071C12.2683 12.0976 12.9015 12.0976 13.292 11.7071C13.6826 11.3166 13.6826 10.6834 13.292 10.2929Z" fill="#899CA8"/>
  </g>
</svg>
