<svg width="18" height="18" viewBox="0 0 18 18" fill="none" xmlns="http://www.w3.org/2000/svg">
  <circle cx="9" cy="9" r="9" fill="#CB3F3F"/>
  <path d="M9.93262 10.8486H8.06641L7.77246 4.04688H10.2266L9.93262 10.8486ZM7.7041 12.9678C7.7041 12.8037 7.73486 12.651 7.79639 12.5098C7.85791 12.3685 7.94564 12.2466 8.05957 12.144C8.1735 12.0415 8.30794 11.9606 8.46289 11.9014C8.61784 11.8421 8.79102 11.8125 8.98242 11.8125C9.17383 11.8125 9.34701 11.8421 9.50195 11.9014C9.6569 11.9606 9.79134 12.0415 9.90527 12.144C10.0192 12.2466 10.1069 12.3685 10.1685 12.5098C10.23 12.651 10.2607 12.8037 10.2607 12.9678C10.2607 13.1318 10.23 13.2845 10.1685 13.4258C10.1069 13.5671 10.0192 13.689 9.90527 13.7915C9.79134 13.894 9.6569 13.9749 9.50195 14.0342C9.34701 14.0934 9.17383 14.123 8.98242 14.123C8.79102 14.123 8.61784 14.0934 8.46289 14.0342C8.30794 13.9749 8.1735 13.894 8.05957 13.7915C7.94564 13.689 7.85791 13.5671 7.79639 13.4258C7.73486 13.2845 7.7041 13.1318 7.7041 12.9678Z" fill="#FCEEEE"/>
</svg>
