<svg width="18" height="18" viewBox="0 0 18 18" fill="none" xmlns="http://www.w3.org/2000/svg">
  <mask id="mask0_1081_837" style="mask-type:luminance" maskUnits="userSpaceOnUse" x="0" y="0" width="18" height="18">
    <path d="M18 0L0 0L0 18L18 18L18 0Z" fill="white"/>
  </mask>
  <g mask="url(#mask0_1081_837)">
    <path d="M7.46386 7.26501L9.77803 9.57917C10.0975 9.89869 10.6156 9.89869 10.9351 9.57917C11.2546 9.25965 11.2546 8.74161 10.9351 8.42209L8.62094 6.10792C8.30142 5.7884 7.78338 5.7884 7.46386 6.10792C7.14434 6.42744 7.14434 6.94549 7.46386 7.26501Z" fill="#899CA8"/>
    <path d="M9.77686 8.70263L7.4627 11.0168C7.14318 11.3363 7.14318 11.8544 7.4627 12.1739C7.78222 12.4934 8.30026 12.4934 8.61978 12.1739L10.9339 9.85971C11.2535 9.54019 11.2535 9.02215 10.9339 8.70263C10.6144 8.38311 10.0964 8.38311 9.77686 8.70263Z" fill="#899CA8"/>
  </g>
</svg>
