<svg width="22" height="23" viewBox="0 0 22 23" fill="none" xmlns="http://www.w3.org/2000/svg">
  <path d="M17 6.99707H9C8.44772 6.99707 8 7.44479 8 7.99707C8 8.54936 8.44772 8.99707 9 8.99707H17C17.5523 8.99707 18 8.54936 18 7.99707C18 7.44479 17.5523 6.99707 17 6.99707Z" fill="#0C8CE0"/>
  <path d="M13 10.9971H9C8.44772 10.9971 8 11.4448 8 11.9971C8 12.5494 8.44772 12.9971 9 12.9971H13C13.5523 12.9971 14 12.5494 14 11.9971C14 11.4448 13.5523 10.9971 13 10.9971Z" fill="#0C8CE0"/>
  <path d="M6 11.9971C6 11.4448 5.55228 10.9971 5 10.9971C4.44772 10.9971 4 11.4448 4 11.9971C4 12.5494 4.44772 12.9971 5 12.9971C5.55228 12.9971 6 12.5494 6 11.9971Z" fill="#0C8CE0"/>
  <path d="M6 15.9971C6 15.4448 5.55228 14.9971 5 14.9971C4.44772 14.9971 4 15.4448 4 15.9971C4 16.5494 4.44772 16.9971 5 16.9971C5.55228 16.9971 6 16.5494 6 15.9971Z" fill="#0C8CE0"/>
  <path d="M6 7.99707C6 7.44479 5.55228 6.99707 5 6.99707C4.44772 6.99707 4 7.44479 4 7.99707C4 8.54936 4.44772 8.99707 5 8.99707C5.55228 8.99707 6 8.54936 6 7.99707Z" fill="#0C8CE0"/>
  <path d="M13 14.9971H9C8.44772 14.9971 8 15.4448 8 15.9971C8 16.5494 8.44772 16.9971 9 16.9971H13C13.5523 16.9971 14 16.5494 14 15.9971C14 15.4448 13.5523 14.9971 13 14.9971Z" fill="#0C8CE0"/>
</svg>
