<svg width="215" height="214" viewBox="0 0 215 214" fill="none" xmlns="http://www.w3.org/2000/svg">
<g clip-path="url(#clip0_3268_11022)">
<path d="M56.0659 98.7563H110.59V106.94H56.0659V98.7563Z" fill="#CBD3D8"/>
<path d="M50.1846 55.0435L54.8695 49.4546L98.9276 88.976L94.2427 94.465L50.1846 55.0435Z" fill="#CBD3D8"/>
<path d="M114.578 98.7563H160.33V106.94H114.578V98.7563Z" fill="#CBD3D8"/>
<path d="M121.455 83.1875L159.433 49.4546L164.217 54.9437L126.24 88.6766L121.455 83.1875Z" fill="#CBD3D8"/>
<path d="M54.6704 149.156L101.52 102.25L106.703 107.439L59.8537 154.346L54.6704 149.156Z" fill="#CBD3D8"/>
<path d="M108.298 106.94L113.381 101.75L161.626 149.855L156.543 155.044L108.298 106.94Z" fill="#CBD3D8"/>
<path d="M200.7 22.2087V15.9212C200.7 10.8313 196.513 6.63965 191.43 6.63965C186.346 6.63965 182.16 10.8313 182.16 15.9212" stroke="#5CC1ED" stroke-width="5" stroke-miterlimit="10" stroke-linecap="round"/>
<path d="M200.7 104.645V98.3572C200.7 93.2673 196.513 89.0757 191.43 89.0757C186.346 89.0757 182.16 93.2673 182.16 98.3572" stroke="#5CC1ED" stroke-width="5" stroke-miterlimit="10" stroke-linecap="round"/>
<path d="M200.7 187.081V180.793C200.7 175.703 196.513 171.512 191.43 171.512C186.346 171.512 182.16 175.703 182.16 180.793" stroke="#5CC1ED" stroke-width="5" stroke-miterlimit="10" stroke-linecap="round"/>
<path d="M31.4451 187.081V180.793C31.4451 175.703 27.2586 171.512 22.1749 171.512C17.0913 171.512 12.9048 175.703 12.9048 180.793" stroke="#5CC1ED" stroke-width="5" stroke-miterlimit="10" stroke-linecap="round"/>
<path d="M31.4451 105.543V99.2552C31.4451 94.1653 27.2586 89.9736 22.1749 89.9736C17.0913 89.9736 12.9048 94.1653 12.9048 99.2552" stroke="#5CC1ED" stroke-width="5" stroke-miterlimit="10" stroke-linecap="round"/>
<path d="M31.4451 22.2087V15.9212C31.4451 10.8313 27.2586 6.63965 22.1749 6.63965C17.0913 6.63965 12.9048 10.8313 12.9048 15.9212" stroke="#5CC1ED" stroke-width="5" stroke-miterlimit="10" stroke-linecap="round"/>
<path d="M126.938 71.7103C120.857 61.6304 107.4 58.5365 97.0338 64.9238C86.6672 71.2113 83.1784 84.4849 89.3585 94.5648C91.7508 98.5569 95.3393 101.451 99.4261 103.048L99.1271 118.617L103.513 121.112L104.211 124.405L99.6255 128.697L100.722 141.871L106.304 145.863L100.423 151.152L99.9245 156.342L107.699 164.226L115.474 158.039L116.77 102.749C117.667 102.349 118.565 101.95 119.362 101.351C129.629 95.0639 133.118 81.7903 126.938 71.7103ZM108.198 88.6766C104.31 88.6766 101.22 85.4829 101.22 81.6905C101.22 77.7982 104.41 74.7044 108.198 74.7044C111.986 74.7044 115.175 77.898 115.175 81.6905C115.175 85.4829 112.085 88.6766 108.198 88.6766Z" fill="#3BA5D3"/>
<path d="M202.095 130.992H180.266C178.571 130.992 177.275 129.595 177.275 127.998V106.142C177.275 104.445 178.671 103.147 180.266 103.147H202.095C203.79 103.147 205.086 104.545 205.086 106.142V127.998C205.086 129.595 203.69 130.992 202.095 130.992Z" fill="#0876BE"/>
<path d="M191.43 117.918C193.687 117.918 195.517 116.086 195.517 113.826C195.517 111.566 193.687 109.734 191.43 109.734C189.173 109.734 187.343 111.566 187.343 113.826C187.343 116.086 189.173 117.918 191.43 117.918Z" fill="#0876BE"/>
<path d="M191.43 123.407C190.234 123.407 189.237 122.409 189.237 121.212V116.421C189.237 115.224 190.234 114.226 191.43 114.226C192.626 114.226 193.623 115.224 193.623 116.421V121.212C193.523 122.409 192.626 123.407 191.43 123.407Z" fill="#0876BE"/>
<path d="M202.095 48.7557H180.266C178.571 48.7557 177.275 47.3585 177.275 45.7617V23.9052C177.275 22.2086 178.671 20.9111 180.266 20.9111H202.095C203.79 20.9111 205.086 22.3084 205.086 23.9052V45.7617C205.086 47.4583 203.69 48.7557 202.095 48.7557Z" fill="#0876BE"/>
<path d="M191.43 35.6818C193.687 35.6818 195.517 33.8498 195.517 31.5899C195.517 29.33 193.687 27.498 191.43 27.498C189.173 27.498 187.343 29.33 187.343 31.5899C187.343 33.8498 189.173 35.6818 191.43 35.6818Z" fill="#0876BE"/>
<path d="M191.43 41.171C190.234 41.171 189.237 40.173 189.237 38.9754V34.1849C189.237 32.9873 190.234 31.9893 191.43 31.9893C192.626 31.9893 193.623 32.9873 193.623 34.1849V38.9754C193.523 40.2728 192.626 41.171 191.43 41.171Z" fill="#0876BE"/>
<path d="M202.095 213.129H180.266C178.571 213.129 177.275 211.732 177.275 210.135V188.278C177.275 186.582 178.671 185.284 180.266 185.284H202.095C203.79 185.284 205.086 186.681 205.086 188.278V210.135C205.086 211.831 203.69 213.129 202.095 213.129Z" fill="#0876BE"/>
<path d="M191.43 200.055C193.687 200.055 195.517 198.223 195.517 195.963C195.517 193.703 193.687 191.871 191.43 191.871C189.173 191.871 187.343 193.703 187.343 195.963C187.343 198.223 189.173 200.055 191.43 200.055Z" fill="#0876BE"/>
<path d="M191.43 205.544C190.234 205.544 189.237 204.546 189.237 203.348V198.557C189.237 197.36 190.234 196.362 191.43 196.362C192.626 196.362 193.623 197.36 193.623 198.557V203.348C193.523 204.546 192.626 205.544 191.43 205.544Z" fill="#0876BE"/>
<path d="M32.3421 213.129H10.4127C8.71819 213.129 7.42236 211.732 7.42236 210.135V188.278C7.42236 186.582 8.81787 185.284 10.4127 185.284H32.2425C33.937 185.284 35.2328 186.681 35.2328 188.278V210.135C35.3325 211.831 33.937 213.129 32.3421 213.129Z" fill="#0876BE"/>
<path d="M21.6767 200.055C23.9338 200.055 25.7635 198.223 25.7635 195.963C25.7635 193.703 23.9338 191.871 21.6767 191.871C19.4196 191.871 17.5898 193.703 17.5898 195.963C17.5898 198.223 19.4196 200.055 21.6767 200.055Z" fill="#0876BE"/>
<path d="M21.6763 205.544C20.4802 205.544 19.4834 204.546 19.4834 203.348V198.557C19.4834 197.36 20.4802 196.362 21.6763 196.362C22.8725 196.362 23.8693 197.36 23.8693 198.557V203.348C23.7696 204.546 22.7728 205.544 21.6763 205.544Z" fill="#0876BE"/>
<path d="M32.3421 131.591H10.4127C8.71819 131.591 7.42236 130.193 7.42236 128.597V106.74C7.42236 105.044 8.81787 103.746 10.4127 103.746H32.2425C33.937 103.746 35.2328 105.143 35.2328 106.74V128.597C35.3325 130.293 33.937 131.591 32.3421 131.591Z" fill="#0876BE"/>
<path d="M21.6767 118.517C23.9338 118.517 25.7635 116.685 25.7635 114.425C25.7635 112.165 23.9338 110.333 21.6767 110.333C19.4196 110.333 17.5898 112.165 17.5898 114.425C17.5898 116.685 19.4196 118.517 21.6767 118.517Z" fill="#0876BE"/>
<path d="M21.6763 124.006C20.4802 124.006 19.4834 123.008 19.4834 121.81V117.02C19.4834 115.822 20.4802 114.824 21.6763 114.824C22.8725 114.824 23.8693 115.822 23.8693 117.02V121.81C23.7696 123.108 22.7728 124.006 21.6763 124.006Z" fill="#0876BE"/>
<path d="M32.3421 48.2567H10.4127C8.71819 48.2567 7.42236 46.8595 7.42236 45.2627V23.4062C7.42236 21.7095 8.81787 20.4121 10.4127 20.4121H32.2425C33.937 20.4121 35.2328 21.8093 35.2328 23.4062V45.2627C35.3325 46.9593 33.937 48.2567 32.3421 48.2567Z" fill="#0876BE"/>
<path d="M21.6767 35.1827C23.9338 35.1827 25.7635 33.3508 25.7635 31.0909C25.7635 28.831 23.9338 26.999 21.6767 26.999C19.4196 26.999 17.5898 28.831 17.5898 31.0909C17.5898 33.3508 19.4196 35.1827 21.6767 35.1827Z" fill="#0876BE"/>
<path d="M21.6763 40.672C20.4802 40.672 19.4834 39.674 19.4834 38.4763V33.6859C19.4834 32.4882 20.4802 31.4902 21.6763 31.4902C22.8725 31.4902 23.8693 32.4882 23.8693 33.6859V38.4763C23.7696 39.7738 22.7728 40.672 21.6763 40.672Z" fill="#0876BE"/>
<path d="M202.095 130.992H180.266C178.571 130.992 177.275 129.595 177.275 127.998V106.142C177.275 104.445 178.671 103.147 180.266 103.147H202.095C203.79 103.147 205.086 104.545 205.086 106.142V127.998C205.086 129.595 203.69 130.992 202.095 130.992Z" fill="#0C8CE0"/>
<path d="M191.43 117.918C193.687 117.918 195.517 116.086 195.517 113.826C195.517 111.566 193.687 109.734 191.43 109.734C189.173 109.734 187.343 111.566 187.343 113.826C187.343 116.086 189.173 117.918 191.43 117.918Z" fill="#3BA5D3"/>
<path d="M191.43 123.407C190.234 123.407 189.237 122.409 189.237 121.212V116.421C189.237 115.224 190.234 114.226 191.43 114.226C192.626 114.226 193.623 115.224 193.623 116.421V121.212C193.523 122.409 192.626 123.407 191.43 123.407Z" fill="#3BA5D3"/>
<path d="M202.095 48.7557H180.266C178.571 48.7557 177.275 47.3585 177.275 45.7617V23.9052C177.275 22.2086 178.671 20.9111 180.266 20.9111H202.095C203.79 20.9111 205.086 22.3084 205.086 23.9052V45.7617C205.086 47.4583 203.69 48.7557 202.095 48.7557Z" fill="#0C8CE0"/>
<path d="M191.43 35.6818C193.687 35.6818 195.517 33.8498 195.517 31.5899C195.517 29.33 193.687 27.498 191.43 27.498C189.173 27.498 187.343 29.33 187.343 31.5899C187.343 33.8498 189.173 35.6818 191.43 35.6818Z" fill="#3BA5D3"/>
<path d="M191.43 41.171C190.234 41.171 189.237 40.173 189.237 38.9754V34.1849C189.237 32.9873 190.234 31.9893 191.43 31.9893C192.626 31.9893 193.623 32.9873 193.623 34.1849V38.9754C193.523 40.2728 192.626 41.171 191.43 41.171Z" fill="#3BA5D3"/>
<path d="M202.095 213.129H180.266C178.571 213.129 177.275 211.732 177.275 210.135V188.278C177.275 186.582 178.671 185.284 180.266 185.284H202.095C203.79 185.284 205.086 186.681 205.086 188.278V210.135C205.086 211.831 203.69 213.129 202.095 213.129Z" fill="#0C8CE0"/>
<path d="M191.43 200.055C193.687 200.055 195.517 198.223 195.517 195.963C195.517 193.703 193.687 191.871 191.43 191.871C189.173 191.871 187.343 193.703 187.343 195.963C187.343 198.223 189.173 200.055 191.43 200.055Z" fill="#3BA5D3"/>
<path d="M191.43 205.544C190.234 205.544 189.237 204.546 189.237 203.348V198.557C189.237 197.36 190.234 196.362 191.43 196.362C192.626 196.362 193.623 197.36 193.623 198.557V203.348C193.523 204.546 192.626 205.544 191.43 205.544Z" fill="#3BA5D3"/>
<path d="M32.3421 213.129H10.4127C8.71819 213.129 7.42236 211.732 7.42236 210.135V188.278C7.42236 186.582 8.81787 185.284 10.4127 185.284H32.2425C33.937 185.284 35.2328 186.681 35.2328 188.278V210.135C35.3325 211.831 33.937 213.129 32.3421 213.129Z" fill="#0C8CE0"/>
<path d="M21.6767 200.055C23.9338 200.055 25.7635 198.223 25.7635 195.963C25.7635 193.703 23.9338 191.871 21.6767 191.871C19.4196 191.871 17.5898 193.703 17.5898 195.963C17.5898 198.223 19.4196 200.055 21.6767 200.055Z" fill="#3BA5D3"/>
<path d="M21.6763 205.544C20.4802 205.544 19.4834 204.546 19.4834 203.348V198.557C19.4834 197.36 20.4802 196.362 21.6763 196.362C22.8725 196.362 23.8693 197.36 23.8693 198.557V203.348C23.7696 204.546 22.7728 205.544 21.6763 205.544Z" fill="#3BA5D3"/>
<path d="M32.3421 131.591H10.4127C8.71819 131.591 7.42236 130.193 7.42236 128.597V106.74C7.42236 105.044 8.81787 103.746 10.4127 103.746H32.2425C33.937 103.746 35.2328 105.143 35.2328 106.74V128.597C35.3325 130.293 33.937 131.591 32.3421 131.591Z" fill="#0C8CE0"/>
<path d="M21.6767 118.517C23.9338 118.517 25.7635 116.685 25.7635 114.425C25.7635 112.165 23.9338 110.333 21.6767 110.333C19.4196 110.333 17.5898 112.165 17.5898 114.425C17.5898 116.685 19.4196 118.517 21.6767 118.517Z" fill="#3BA5D3"/>
<path d="M21.6763 124.006C20.4802 124.006 19.4834 123.008 19.4834 121.81V117.02C19.4834 115.822 20.4802 114.824 21.6763 114.824C22.8725 114.824 23.8693 115.822 23.8693 117.02V121.81C23.7696 123.108 22.7728 124.006 21.6763 124.006Z" fill="#3BA5D3"/>
<path d="M32.3421 48.2567H10.4127C8.71819 48.2567 7.42236 46.8595 7.42236 45.2627V23.4062C7.42236 21.7095 8.81787 20.4121 10.4127 20.4121H32.2425C33.937 20.4121 35.2328 21.8093 35.2328 23.4062V45.2627C35.3325 46.9593 33.937 48.2567 32.3421 48.2567Z" fill="#0C8CE0"/>
<path d="M21.6767 35.1827C23.9338 35.1827 25.7635 33.3508 25.7635 31.0909C25.7635 28.831 23.9338 26.999 21.6767 26.999C19.4196 26.999 17.5898 28.831 17.5898 31.0909C17.5898 33.3508 19.4196 35.1827 21.6767 35.1827Z" fill="#3BA5D3"/>
<path d="M21.6763 40.672C20.4802 40.672 19.4834 39.674 19.4834 38.4763V33.6859C19.4834 32.4882 20.4802 31.4902 21.6763 31.4902C22.8725 31.4902 23.8693 32.4882 23.8693 33.6859V38.4763C23.7696 39.7738 22.7728 40.672 21.6763 40.672Z" fill="#3BA5D3"/>
</g>
<defs>
<clipPath id="clip0_3268_11022">
<rect width="214.31" height="212.577" fill="white" transform="translate(0.345215 0.551758)"/>
</clipPath>
</defs>
</svg>
